<?xml version="1.0" standalone="no"?>
<!DOCTYPE svg PUBLIC "-//W3C//DTD SVG 20010904//EN"
 "http://www.w3.org/TR/2001/REC-SVG-20010904/DTD/svg10.dtd">
<svg version="1.0" xmlns="http://www.w3.org/2000/svg"
 width="800.000000pt" height="800.000000pt" viewBox="0 0 800.000000 800.000000"
 preserveAspectRatio="xMidYMid meet">
<metadata>
Created by potrace 1.14, written by Peter Selinger 2001-2017
</metadata>
<g transform="translate(0.000000,800.000000) scale(0.100000,-0.100000)"
fill="#000000" stroke="none">
<path d="M3808 7369 c-466 -347 -906 -783 -1258 -1247 l-55 -72 -187 0 c-164
0 -194 -3 -242 -20 -102 -39 -185 -138 -206 -247 -6 -34 -3 -104 10 -243 11
-107 24 -258 31 -335 l12 -140 -50 -110 c-264 -578 -446 -1278 -493 -1896 -5
-74 -10 -148 -10 -166 0 -27 -46 -86 -320 -409 -176 -208 -319 -378 -318 -379
2 -2 78 34 169 79 153 75 354 153 489 190 167 46 404 60 530 30 87 -20 233
-95 475 -245 430 -265 704 -376 1081 -439 181 -30 309 -40 508 -40 467 0 842
80 1211 259 106 51 247 133 535 310 146 90 278 150 371 167 251 48 635 -44
1035 -249 59 -31 110 -54 112 -52 3 2 -45 62 -105 132 -216 254 -518 609 -531
625 -7 9 -15 54 -18 100 -39 664 -242 1436 -546 2080 l-51 107 27 293 c24 271
25 297 11 350 -25 98 -84 170 -178 220 -38 21 -60 23 -223 28 l-182 5 -72 95
c-333 436 -751 849 -1209 1193 -144 109 -174 126 -96 56 269 -242 628 -624
853 -906 115 -144 321 -424 322 -435 0 -5 -49 -8 -109 -8 l-109 0 -59 49
c-208 173 -479 307 -733 363 -139 31 -394 30 -540 -1 -245 -53 -499 -178 -721
-358 l-66 -53 -102 0 c-120 0 -120 -16 0 151 275 383 617 774 941 1076 90 84
172 159 183 167 11 9 17 16 13 16 -4 0 -62 -41 -130 -91z m441 -1023 c103 -19
247 -58 335 -91 86 -32 256 -118 326 -164 l55 -36 -330 -5 c-321 -5 -331 -6
-378 -28 -62 -31 -127 -95 -157 -157 -23 -45 -25 -64 -28 -202 l-3 -153 -123
0 -123 0 1 138 c0 120 -3 144 -22 193 -29 73 -85 137 -153 174 l-54 30 -320 5
-320 5 87 53 c219 133 480 223 734 252 107 12 370 4 473 -14z m-1161 -486 c39
-12 72 -26 72 -31 0 -5 -122 -131 -271 -280 -264 -266 -329 -343 -329 -397 0
-31 34 -42 104 -35 31 3 56 4 56 1 0 -3 -37 -33 -82 -68 -120 -92 -212 -174
-228 -204 -16 -30 -32 -32 -108 -10 -53 16 -55 18 -37 31 11 7 53 37 94 66 41
28 76 57 78 64 3 7 -26 28 -64 47 -37 19 -74 39 -82 45 -11 7 14 43 114 167
247 305 420 510 492 582 69 70 73 73 95 58 13 -8 56 -24 96 -36z m2228 41 c5
-5 43 -19 84 -31 41 -12 79 -26 84 -30 5 -5 -110 -127 -263 -281 -272 -272
-331 -343 -331 -401 0 -33 27 -43 101 -36 27 3 49 2 49 -2 0 -4 -42 -39 -92
-78 -100 -76 -181 -150 -215 -195 l-22 -28 -65 18 c-36 9 -66 20 -66 24 0 4
17 18 38 30 53 32 152 109 152 118 0 4 -36 25 -80 46 -44 21 -80 43 -80 48 0
19 509 634 611 739 67 69 77 75 95 59z m-1964 -261 c14 -1 19 3 -223 -204 -96
-82 -185 -159 -198 -170 -34 -29 -28 -20 152 237 l160 227 48 -45 c26 -25 54
-45 61 -45z m2259 55 c17 -19 39 -37 50 -40 10 -4 19 -10 19 -14 0 -4 -87 -82
-192 -173 -221 -191 -255 -218 -243 -198 31 54 321 460 327 460 5 0 22 -16 39
-35z m-1492 -412 c18 -69 94 -225 145 -297 94 -132 239 -241 386 -290 124 -41
217 -48 592 -44 325 4 346 5 408 27 89 31 136 60 194 119 l50 51 28 -67 c49
-114 155 -439 202 -617 55 -209 87 -370 120 -596 34 -240 40 -309 27 -309 -6
0 -11 3 -11 8 -1 4 -19 27 -42 52 -56 61 -50 52 258 -408 145 -216 264 -395
264 -398 0 -2 -23 8 -52 22 -148 75 -332 122 -508 130 -115 5 -132 4 -215 -20
-121 -36 -299 -123 -610 -301 -315 -180 -441 -241 -605 -294 -243 -79 -593
-145 -770 -144 -179 0 -535 67 -772 144 -157 51 -281 111 -608 296 -313 177
-443 241 -566 282 -80 27 -106 31 -200 31 -189 0 -383 -44 -535 -120 -33 -17
-63 -29 -66 -27 -2 3 117 187 264 409 148 221 273 410 277 418 8 16 -20 -13
-73 -75 l-33 -40 6 95 c20 296 99 699 207 1058 46 151 136 402 149 416 5 5 27
-7 51 -28 59 -50 129 -81 227 -101 70 -14 133 -16 439 -12 323 4 365 6 433 25
142 39 239 93 341 190 112 105 231 306 255 430 l6 32 163 0 163 0 11 -47z"/>
<path d="M5551 4455 c-78 -148 -286 -290 -541 -371 -162 -51 -390 -95 -565
-109 -44 -4 -91 -9 -105 -11 -71 -11 -497 -15 -660 -5 -700 41 -1127 202
-1304 491 l-28 45 7 -65 c17 -172 88 -496 156 -715 85 -270 226 -577 359 -777
69 -105 73 -109 163 -162 172 -101 355 -170 577 -218 92 -19 135 -22 350 -22
266 -1 318 5 558 65 224 55 561 198 597 253 34 51 127 270 175 413 94 274 195
687 259 1060 16 93 28 169 27 170 -1 1 -12 -18 -25 -42z m-2909 -360 c466
-224 1429 -293 2148 -154 200 39 414 107 519 165 24 13 47 24 50 24 7 0 -150
-644 -159 -653 -3 -3 -55 73 -115 168 -61 96 -114 173 -118 172 -4 -1 -49 -99
-100 -218 -51 -119 -95 -218 -99 -220 -8 -4 -70 90 -187 279 -34 56 -64 102
-66 102 -2 0 -61 -90 -130 -200 -70 -110 -130 -202 -133 -204 -4 -2 -65 83
-137 190 -71 107 -132 194 -135 194 -3 0 -59 -88 -125 -195 -66 -107 -122
-194 -125 -194 -3 0 -66 90 -139 200 -74 109 -139 198 -144 196 -5 -1 -55 -91
-111 -200 -55 -108 -103 -197 -106 -196 -3 0 -41 63 -85 141 -138 244 -177
309 -182 305 -2 -3 -31 -94 -64 -204 -33 -109 -62 -205 -65 -213 -7 -18 -27
19 -96 179 -104 241 -205 571 -174 571 2 0 37 -16 78 -35z m2374 -941 l36
-136 -34 -35 c-91 -95 -331 -221 -511 -267 -202 -52 -277 -61 -537 -61 -215 0
-259 3 -357 23 -279 56 -474 152 -632 309 -53 52 -71 78 -67 90 4 9 19 64 33
122 14 58 28 108 30 111 3 3 68 -62 146 -144 l142 -148 89 131 c49 72 92 131
95 130 3 0 66 -72 140 -160 74 -87 138 -159 142 -159 4 0 62 66 129 146 l122
146 158 -157 c158 -157 158 -158 173 -134 8 13 56 95 107 181 l93 158 51 -47
c28 -26 90 -87 137 -135 47 -48 90 -88 95 -88 5 0 45 68 88 152 67 128 81 148
87 130 5 -12 25 -83 45 -158z"/>
<path d="M5110 6732 c0 -2 75 -85 168 -185 92 -100 183 -201 203 -224 l36 -43
435 0 435 0 6 -127 c10 -182 8 -626 -3 -988 l-9 -309 50 -133 c124 -325 253
-881 285 -1230 11 -115 13 -110 70 137 129 568 189 1462 154 2325 -11 265 -38
676 -49 739 l-7 41 -887 0 c-488 0 -887 -1 -887 -3z"/>
<path d="M1065 6718 c-2 -7 -9 -83 -15 -168 -5 -85 -13 -184 -15 -220 -14
-171 -25 -558 -25 -865 0 -755 56 -1358 176 -1890 27 -122 33 -140 39 -134 2
3 14 68 25 144 60 396 173 845 295 1172 l35 92 -10 268 c-11 298 -13 1113 -4
1137 5 14 41 16 298 16 161 0 361 3 444 7 l151 6 63 81 c54 70 134 165 276
328 l34 38 -882 0 c-696 0 -881 -3 -885 -12z"/>
<path d="M1876 2198 c17 -18 81 -88 143 -155 426 -462 1091 -955 1815 -1345
119 -64 151 -71 59 -12 -87 55 -280 194 -433 310 -295 224 -556 452 -805 704
-149 151 -169 168 -290 240 -71 42 -188 114 -260 159 -121 77 -223 131 -248
131 -6 0 3 -15 19 -32z"/>
<path d="M6015 2190 c-101 -47 -224 -118 -394 -228 -118 -77 -160 -112 -350
-298 -119 -116 -241 -234 -271 -261 -239 -215 -567 -472 -838 -657 -79 -54
-141 -100 -139 -102 6 -6 266 137 455 250 610 364 1203 841 1566 1259 32 37
57 69 55 71 -2 2 -40 -13 -84 -34z"/>
</g>
</svg>
